Coordinates
version=1
nRows=14
nColumns=40
inDegrees=yes

Units are S.I. units (second, meters, Newtons, ...)
Angles are in degrees.

endheader
time	pelvis_tilt	pelvis_list	pelvis_rotation	pelvis_tx	pelvis_ty	pelvis_tz	hip_flexion_r	hip_adduction_r	hip_rotation_r	knee_angle_r	knee_angle_r_beta	ankle_angle_r	subtalar_angle_r	mtp_angle_r	hip_flexion_l	hip_adduction_l	hip_rotation_l	knee_angle_l	knee_angle_l_beta	ankle_angle_l	subtalar_angle_l	mtp_angle_l	lumbar_extension	lumbar_bending	lumbar_rotation	arm_flex_r	arm_add_r	arm_rot_r	elbow_flex_r	pro_sup_r	wrist_flex_r	wrist_dev_r	arm_flex_l	arm_add_l	arm_rot_l	elbow_flex_l	pro_sup_l	wrist_flex_l	wrist_dev_l
      0.00000000	     -2.92930519	     -3.59227748	      4.53295732	     -1.18931636	      0.88193748	     -0.98564948	     15.11968011	      4.21870746	    -17.92886215	    -23.13463251	     -0.40377551	      8.35075225	     -0.83591260	      0.87401979	     14.68108403	     12.36628170	      7.08279368	    -55.76109542	     -0.97321471	      8.64369657	     18.15491911	     17.66042496	     -3.76658915	      1.34917175	     -6.50525382	     -2.51281496	     -7.55812017	     -4.25135588	     25.06712040	     89.95437384	      0.00000000	      0.00000000	      1.27941803	     10.79514178	     12.54314376	     35.06879391	     89.95437384	      0.00000000	      0.00000000
      0.01000000	     -2.77846402	     -3.41860403	      4.13659982	     -1.18564363	      0.88252729	     -0.98448169	     14.64614430	      4.21683178	    -17.60131324	    -23.08036447	     -0.40282835	      8.53164973	     -0.72666976	      0.82833497	     15.27328914	     11.99168501	      6.81188226	    -56.20720654	     -0.98100082	      8.87350354	     18.24292766	     17.43947369	     -3.96669805	      1.24477283	     -6.16443447	     -2.16527819	     -7.65979643	     -4.17996624	     25.23821850	     89.95437384	      0.00000000	      0.00000000	      1.13674853	     10.65642203	     12.56156408	     34.49136991	     89.95437384	      0.00000000	      0.00000000
      0.02000000	     -2.67479481	     -3.23891114	      3.80325749	     -1.18167264	      0.88310526	     -0.98352273	     14.13190812	      4.21493077	    -17.19499491	    -22.88599719	     -0.39943600	      8.74095508	     -0.56575157	      0.76586774	     15.84425711	     11.55991157	      6.46074700	    -56.49020021	     -0.98593999	      9.29053828	     18.25848266	     17.25100422	     -4.09979137	      1.15685362	     -5.87491049	     -1.96150452	     -7.78730568	     -4.15006644	     25.58407049	     89.95437384	      0.00000000	      0.00000000	      1.01911243	     10.48253984	     12.74181103	     33.74237272	     89.95437384	      0.00000000	      0.00000000
      0.03000000	     -2.62621314	     -3.04249931	      3.36665164	     -1.17798746	      0.88347488	     -0.98232552	     13.82231964	      4.11706312	    -17.14356531	    -22.92196582	     -0.40006377	      8.71634756	     -0.54483976	      0.74753411	     16.46886693	     11.22687134	      6.36183429	    -56.64757916	     -0.98868677	      9.27862279	     18.01681766	     16.96946699	     -4.19679636	      1.00215484	     -5.58317886	     -1.67971151	     -7.86285367	     -4.13690691	     25.93795073	     89.95437384	      0.00000000	      0.00000000	      0.62886815	     10.41829789	     12.75680176	     33.49365617	     89.95437384	      0.00000000	      0.00000000
      0.04000000	     -2.48103395	     -2.96071372	      3.10214965	     -1.17411445	      0.88414286	     -0.98154843	     13.11662059	      4.20551737	    -16.78542495	    -22.45719536	     -0.39195200	      9.17755692	     -0.27294138	      0.67214586	     17.05842708	     10.94523333	      6.16142804	    -56.77606455	     -0.99092926	      9.89412520	     18.37478475	     16.95844302	     -4.34315126	      1.02829602	     -5.31209957	     -1.41726399	     -7.97458713	     -4.16402805	     26.11327491	     89.95437384	      0.00000000	      0.00000000	      0.66640594	     10.17973759	     13.02327947	     32.46403842	     89.95437384	      0.00000000	      0.00000000
      0.05000000	     -2.34413412	     -2.81164272	      2.70983777	     -1.17047068	      0.88470685	     -0.98062915	     12.58897676	      4.21804133	    -16.41760923	    -22.19645586	     -0.38740124	      9.26229091	     -0.14560005	      0.62011750	     17.59856456	     10.65475220	      6.17177080	    -56.74432948	     -0.99037538	     10.12368210	     18.45865663	     17.00963482	     -4.51548562	      0.92906794	     -4.93928554	     -1.18766378	     -8.07820261	     -4.19790419	     26.49507915	     89.95437384	      0.00000000	      0.00000000	      0.58164677	      9.96358297	     13.34523203	     31.75450030	     89.95437384	      0.00000000	      0.00000000
      0.06000000	     -2.28609688	     -2.69894873	      2.40688751	     -1.16667608	      0.88512299	     -0.97969844	     12.12893989	      4.21275840	    -16.33304800	    -21.97820966	     -0.38359212	      9.39084994	     -0.06831123	      0.57947574	     18.25371181	     10.45391024	      6.24625038	    -56.66437692	     -0.98897995	     10.36346024	     18.53625703	     16.94240043	     -4.61607992	      0.89904138	     -4.79403874	     -0.88106403	     -8.14298947	     -4.20988283	     26.76963268	     89.95437384	      0.00000000	      0.00000000	      0.25644661	      9.86565060	     13.47879894	     31.30599546	     89.95437384	      0.00000000	      0.00000000
      0.07000000	     -2.23725847	     -2.62129316	      2.12284739	     -1.16290940	      0.88544351	     -0.97891499	     11.68683236	      4.22313536	    -16.24310284	    -21.76071817	     -0.37979618	      9.50297217	      0.02414243	      0.53236086	     18.93631796	     10.25348136	      6.24867525	    -56.49783004	     -0.98607315	     10.56742814	     18.63617096	     16.87968262	     -4.64707809	      0.85679558	     -4.57330763	     -0.61508656	     -8.20229320	     -4.21962946	     26.99278631	     89.95437384	      0.00000000	      0.00000000	      0.00986734	      9.75575171	     13.52357176	     30.78307386	     89.95437384	      0.00000000	      0.00000000
      0.08000000	     -2.20031308	     -2.55985503	      1.88053149	     -1.15915140	      0.88575414	     -0.97819721	     11.27277190	      4.25170924	    -16.13196113	    -21.58678365	     -0.37676045	      9.63269012	      0.12552303	      0.48456796	     19.61607540	     10.06957811	      6.28441470	    -56.20571039	     -0.98097470	     10.74502517	     18.68286606	     16.81426405	     -4.66814154	      0.84825768	     -4.39910319	     -0.37011503	     -8.26804841	     -4.22871166	     27.27046587	     89.95437384	      0.00000000	      0.00000000	     -0.25445487	      9.66208624	     13.58690395	     30.28390401	     89.95437384	      0.00000000	      0.00000000
      0.09000000	     -2.12514417	     -2.49488559	      1.62101215	     -1.15538111	      0.88611336	     -0.97760058	     10.74719518	      4.30181684	    -15.81473693	    -21.26739000	     -0.37118598	      9.79463239	      0.36508961	      0.42084000	     20.24277676	      9.84737476	      6.27174172	    -55.82056745	     -0.97425269	     11.08746723	     18.73710539	     16.86868645	     -4.72986636	      0.84726270	     -4.17642907	     -0.13279002	     -8.35061322	     -4.25725612	     27.54554439	     89.95437384	      0.00000000	      0.00000000	     -0.39843476	      9.50843442	     13.76779953	     29.60960533	     89.95437384	      0.00000000	      0.00000000
      0.10000000	     -1.80282262	     -2.37750998	      1.32357188	     -1.15138039	      0.88684065	     -0.97687411	      9.95177462	      4.33350581	    -15.40944163	    -20.94695576	     -0.36559335	      9.95456111	      0.61098461	      0.31839019	     20.46087790	      9.66001058	      6.53380932	    -55.22634929	     -0.96388163	     11.45952151	     18.71673797	     17.74511074	     -5.08915380	      0.74736189	     -3.80983304	     -0.00057573	     -8.40172679	     -4.42028915	     28.01334412	     89.95437384	      0.00000000	      0.00000000	     -0.44493811	      9.33597193	     14.18668309	     28.96342400	     89.95437384	      0.00000000	      0.00000000
      0.11000000	     -1.86344409	     -2.33533422	      1.13941852	     -1.14769866	      0.88685781	     -0.97642879	      9.73250559	      4.32405430	    -15.42039637	    -20.90416179	     -0.36484645	     10.01654296	      0.58256132	      0.28641230	     21.23690208	      9.51575431	      6.68769499	    -54.64946901	     -0.95381317	     11.61392960	     18.74286076	     17.64003861	     -5.02637322	      0.76405722	     -3.73188866	      0.27773600	     -8.44649772	     -4.40969287	     28.24453806	     89.95437384	      0.00000000	      0.00000000	     -0.82119785	      9.26254324	     14.14183804	     28.67145902	     89.95437384	      0.00000000	      0.00000000
      0.12000000	     -1.82213087	     -2.16010453	      0.92008627	     -1.14405924	      0.88709933	     -0.97614002	      9.29355407	      4.25068014	    -14.87178833	    -20.68674799	     -0.36105186	     10.26619649	      0.71888969	      0.17413968	     21.82415852	      9.13002875	      6.76475138	    -53.92672131	     -0.94119884	     11.86324116	     18.80513472	     17.94228814	     -5.07118054	      0.63278398	     -3.51435453	      0.53252186	     -8.53255324	     -4.39556648	     28.49361916	     89.95437384	      0.00000000	      0.00000000	     -0.90417882	      9.14723043	     14.26204832	     27.98897618	     89.95437384	      0.00000000	      0.00000000
      0.13000000	     -1.87284560	     -2.11966268	      0.71036513	     -1.14041905	      0.88708305	     -0.97575762	      9.08197165	      4.24700219	    -14.86642896	    -20.68691237	     -0.36105473	     10.35752594	      0.65418786	      0.13398826	     22.53181138	      9.00056666	      6.95795392	    -53.20297581	     -0.92856710	     11.93910335	     18.77925808	     17.89435485	     -5.02874324	      0.61883972	     -3.31717323	      0.76315378	     -8.58478350	     -4.41413559	     28.73279839	     89.95437384	      0.00000000	      0.00000000	     -1.22760085	      9.07050203	     14.26373547	     27.78251682	     89.95437384	      0.00000000	      0.00000000
